<?xml version="1.0" encoding="UTF-8"?>
<svg version="1.1" xmlns="http://www.w3.org/2000/svg" width="512" height="512">
<path d="M0 0 C0.92856412 -0.00453111 1.85712824 -0.00906223 2.81383067 -0.01373065 C5.91498543 -0.02635718 9.01596416 -0.02475538 12.11714172 -0.02310181 C14.34498316 -0.02908821 16.57282253 -0.03589401 18.80065918 -0.04345703 C24.84632324 -0.06111447 30.89193067 -0.06581236 36.93761802 -0.0670886 C40.71761204 -0.06851109 44.49759171 -0.07278259 48.27758217 -0.07808304 C60.79240112 -0.09562923 73.30718794 -0.10492339 85.82201662 -0.10342209 C86.49594111 -0.10334218 87.16986559 -0.10326227 87.86421204 -0.10317993 C88.53896597 -0.10309817 89.2137199 -0.10301641 89.90892092 -0.10293217 C100.83532467 -0.1021199 111.76159037 -0.12124479 122.68795421 -0.14945666 C133.92508398 -0.17824035 145.16214863 -0.19162831 156.39932281 -0.19026911 C162.7008554 -0.18976004 169.00223176 -0.1954128 175.30373192 -0.21662521 C181.23406536 -0.23604318 187.16409413 -0.23610748 193.09443855 -0.22159195 C195.26474835 -0.21950708 197.43507739 -0.22418544 199.60535431 -0.23631287 C217.64760629 -0.33056081 230.66039579 1.89442968 244.33320618 14.57992554 C253.26370275 24.01592192 257.06154117 35.22634498 256.97088623 48.04498291 C256.97896454 49.44167401 256.97896454 49.44167401 256.98720604 50.86658108 C257.0014102 53.95850449 256.99440057 57.0499952 256.98725891 60.14193726 C256.99296643 62.37022239 256.99993217 64.5985046 257.00805664 66.82678223 C257.02596127 72.85990358 257.02482463 78.89287927 257.01911426 84.92601919 C257.01601837 89.9706168 257.02211935 95.01518659 257.028153 100.05978024 C257.04298941 112.64465741 257.03939226 125.22944713 257.0272897 137.81431772 C257.01736069 148.72113714 257.03029598 159.62778684 257.05422389 170.5345801 C257.07865973 181.75825233 257.08781277 192.98184772 257.08157116 204.20555317 C257.07820641 210.4969711 257.08058473 216.78824885 257.09782219 223.07964706 C257.1133299 228.99772263 257.10929305 234.91547508 257.09051704 240.83353806 C257.08684173 242.99900757 257.08990859 245.16450122 257.10040283 247.32994843 C257.18112534 265.37133967 254.96744709 278.49707672 242.14570618 292.07992554 C228.94465516 304.52162406 213.69720074 304.85839648 196.51338196 304.8008728 C194.28804454 304.80793946 192.06271192 304.8166876 189.83738708 304.82698059 C183.82074124 304.84940119 177.80435938 304.84655178 171.78768778 304.83765912 C166.75311225 304.83253325 161.71858564 304.83985482 156.68401515 304.84713119 C144.12273521 304.86507606 131.5615817 304.85874345 119.00031541 304.84096139 C108.12080169 304.82627158 97.24156433 304.8408894 86.36208619 304.86973155 C75.15867719 304.89920853 63.95536772 304.90956686 52.75191486 304.90054935 C46.47496738 304.89563429 40.19823454 304.89775885 33.92131424 304.91833687 C28.01627091 304.9367706 22.11173859 304.93064106 16.20672226 304.90613747 C14.04854331 304.90115391 11.89032489 304.9045549 9.73217773 304.91728592 C-7.94593542 305.01326286 -21.41704182 303.0071834 -34.56523132 290.16976929 C-43.68767647 280.55559383 -47.72784472 269.95983358 -47.69094849 256.86408997 C-47.69618517 255.93693698 -47.70142184 255.00978398 -47.70681721 254.05453545 C-47.72177902 250.95805566 -47.72252153 247.86174168 -47.72319031 244.76522827 C-47.7308145 242.54063133 -47.73924245 240.31603702 -47.74841309 238.09144592 C-47.77034288 232.05391778 -47.77915531 226.0164403 -47.78423953 219.97887683 C-47.78788577 216.20288733 -47.79412732 212.42691104 -47.80124092 208.65092659 C-47.82069326 198.17907151 -47.83720805 187.70722433 -47.84011745 177.23535061 C-47.84030502 176.56600296 -47.84049259 175.89665531 -47.84068585 175.2070244 C-47.84105208 173.85031164 -47.84141578 172.49359888 -47.84177696 171.13688611 C-47.84195977 170.46348707 -47.84214258 169.79008803 -47.84233093 169.09628296 C-47.84251148 168.42205365 -47.84269203 167.74782434 -47.84287805 167.05316383 C-47.84641575 156.1410148 -47.87341538 145.22906359 -47.91082882 134.3169831 C-47.94900723 123.09114462 -47.96783556 111.86540076 -47.96857697 100.6394859 C-47.96936824 94.34567237 -47.97803811 88.05211405 -48.00657463 81.75835991 C-48.03284029 75.83289833 -48.03491276 69.90790198 -48.01891899 63.98240852 C-48.01711111 61.81615811 -48.02373497 59.64988042 -48.0397377 57.48368835 C-48.16253541 39.77127509 -46.18376022 26.29504475 -33.31913757 13.11898804 C-23.69960483 3.99145962 -13.10282787 -0.04726762 0 0 Z M-11.35429382 38.01742554 C-15.21126429 44.09507596 -15.71120877 49.9612137 -15.67749023 56.94512939 C-15.68131578 57.79413917 -15.68514133 58.64314894 -15.6890828 59.51788628 C-15.69936351 62.34966501 -15.69543004 65.18123912 -15.69145203 68.01303101 C-15.69580124 70.04869778 -15.70098508 72.08436292 -15.7069397 74.12002563 C-15.72031865 79.64071899 -15.72090957 85.16134383 -15.7183764 90.68205023 C-15.71730591 95.29432796 -15.72219207 99.90659188 -15.72698182 104.51886666 C-15.73807326 115.40202312 -15.73851649 126.28514507 -15.73246765 137.16830444 C-15.72642776 148.38762373 -15.73874016 159.6068176 -15.76003772 170.82611549 C-15.77766322 180.4662407 -15.78365356 190.10632603 -15.78039998 199.74646676 C-15.77858845 205.50069916 -15.78121037 211.25484212 -15.79511452 217.00905991 C-15.80770355 222.42144261 -15.80573846 227.83363007 -15.79270363 233.24600983 C-15.79034063 235.22890667 -15.79306259 237.2118173 -15.80132675 239.19469833 C-15.81181938 241.90860871 -15.80367343 244.62186696 -15.79101562 247.33575439 C-15.79838991 248.11408123 -15.80576419 248.89240806 -15.81336194 249.69432056 C-15.75562133 255.60855235 -14.94133861 262.10373018 -11.14188844 266.86510456 C-5.28433082 272.18549452 1.77500831 272.56426409 9.26091003 272.52812195 C10.53442469 272.53386027 10.53442469 272.53386027 11.83366692 272.53971452 C14.66544565 272.54999522 17.49701976 272.54606176 20.32881165 272.54208374 C22.36447842 272.54643295 24.40014356 272.5516168 26.43580627 272.55757141 C31.95649963 272.57095036 37.47712447 272.57154128 42.99783087 272.56900811 C47.6101086 272.56793762 52.22237252 272.57282379 56.8346473 272.57761353 C67.71780376 272.58870497 78.60092571 272.5891482 89.48408508 272.58309937 C100.70340437 272.57705947 111.92259824 272.58937187 123.14189613 272.61066943 C132.78202134 272.62829493 142.42210667 272.63428528 152.0622474 272.63103169 C157.8164798 272.62922016 163.57062276 272.63184208 169.32484055 272.64574623 C174.73722325 272.65833526 180.14941071 272.65637017 185.56179047 272.64333534 C187.54468731 272.64097235 189.52759794 272.6436943 191.51047897 272.65195847 C194.22438935 272.66245109 196.9376476 272.65430514 199.65153503 272.64164734 C200.42986187 272.64902162 201.2081887 272.65639591 202.0101012 272.66399366 C207.92433299 272.60625304 214.41951082 271.79197033 219.1808852 267.99252015 C224.50127516 262.13496253 224.88004473 255.07562341 224.84390259 247.58972168 C224.84772813 246.74071191 224.85155368 245.89170213 224.85549515 245.01696479 C224.86577586 242.18518606 224.8618424 239.35361196 224.85786438 236.52182007 C224.86221359 234.48615329 224.86739744 232.45048815 224.87335205 230.41482544 C224.886731 224.89413209 224.88732192 219.37350725 224.88478875 213.85280085 C224.88371826 209.24052311 224.88860443 204.62825919 224.89339417 200.01598442 C224.90448561 189.13282795 224.90492884 178.24970601 224.89888 167.36654663 C224.89284011 156.14722735 224.90515251 144.92803347 224.92645007 133.70873559 C224.94407557 124.06861037 224.95006592 114.42852505 224.94681233 104.78838432 C224.9450008 99.03415191 224.94762272 93.28000896 224.96152687 87.52579117 C224.9741159 82.11340846 224.97215081 76.70122101 224.95911598 71.28884125 C224.95675298 69.3059444 224.95947494 67.32303377 224.96773911 65.34015274 C224.97823173 62.62624237 224.97008578 59.91298412 224.95742798 57.19909668 C224.96480226 56.42076985 224.97217655 55.64244301 224.9797743 54.84053051 C224.92203368 48.92629872 224.10775097 42.4311209 220.30830079 37.66974652 C214.45074317 32.34935655 207.39140405 31.97058698 199.90550232 32.00672913 C198.63198766 32.00099081 198.63198766 32.00099081 197.33274543 31.99513656 C194.5009667 31.98485586 191.6693926 31.98878932 188.83760071 31.99276733 C186.80193393 31.98841813 184.76626879 31.98323428 182.73060608 31.97727966 C177.20991273 31.96390072 171.68928789 31.96330979 166.16858149 31.96584296 C161.55630375 31.96691345 156.94403983 31.96202729 152.33176506 31.95723754 C141.44860859 31.9461461 130.56548665 31.94570287 119.68232727 31.95175171 C108.46300799 31.9577916 97.24381411 31.9454792 86.02451622 31.92418164 C76.38439101 31.90655614 66.74430569 31.9005658 57.10416496 31.90381938 C51.34993255 31.90563091 45.5957896 31.90300899 39.84157181 31.88910484 C34.4291891 31.87651582 29.01700165 31.8784809 23.60462189 31.89151573 C21.62172504 31.89387873 19.63881441 31.89115677 17.65593338 31.88289261 C14.94202301 31.87239998 12.22876476 31.88054593 9.51487732 31.89320374 C8.73655048 31.88582945 7.95822365 31.87845517 7.15631115 31.87085742 C0.55990303 31.93525812 -6.7167559 32.91166341 -11.35429382 38.01742554 Z " fill="#000000" transform="translate(255.4167938232422,207.73257446289063)"/>
<path d="M0 0 C0.92856412 -0.00453111 1.85712824 -0.00906223 2.81383067 -0.01373065 C5.91498543 -0.02635718 9.01596416 -0.02475538 12.11714172 -0.02310181 C14.34498316 -0.02908821 16.57282253 -0.03589401 18.80065918 -0.04345703 C24.84632324 -0.06111447 30.89193067 -0.06581236 36.93761802 -0.0670886 C40.71761204 -0.06851109 44.49759171 -0.07278259 48.27758217 -0.07808304 C60.79240112 -0.09562923 73.30718794 -0.10492339 85.82201662 -0.10342209 C86.49594111 -0.10334218 87.16986559 -0.10326227 87.86421204 -0.10317993 C88.53896597 -0.10309817 89.2137199 -0.10301641 89.90892092 -0.10293217 C100.83532467 -0.1021199 111.76159037 -0.12124479 122.68795421 -0.14945666 C133.92508398 -0.17824035 145.16214863 -0.19162831 156.39932281 -0.19026911 C162.7008554 -0.18976004 169.00223176 -0.1954128 175.30373192 -0.21662521 C181.23406536 -0.23604318 187.16409413 -0.23610748 193.09443855 -0.22159195 C195.26474835 -0.21950708 197.43507739 -0.22418544 199.60535431 -0.23631287 C217.64760629 -0.33056081 230.66039579 1.89442968 244.33320618 14.57992554 C255.10646414 25.96299055 257.04303606 38.3942306 256.92378235 53.53939819 C256.92293461 55.05809512 256.92341409 56.57679328 256.92510986 58.0954895 C256.9259655 62.18991773 256.90841029 66.28407867 256.88738799 70.37844515 C256.86854866 74.66787111 256.86686506 78.95730418 256.86331177 83.24676514 C256.85401252 91.35674728 256.82942764 99.46660713 256.7992633 107.57653558 C256.76565304 116.81478483 256.74921667 126.05304011 256.73417699 135.29133534 C256.70287602 154.28344869 256.64789067 173.27539453 256.58320618 192.26742554 C246.02320618 192.26742554 235.46320618 192.26742554 224.58320618 192.26742554 C224.5613324 185.79484131 224.5613324 185.79484131 224.53901672 179.1914978 C224.48866667 164.93023621 224.42222026 150.66908312 224.34749126 136.40792942 C224.30257831 127.76190474 224.26315331 119.11592084 224.23677063 110.46981812 C224.21375405 102.93145714 224.18031527 95.3932257 224.13450462 87.85496753 C224.11062162 83.8656953 224.09186067 79.87655096 224.08559227 75.88720894 C224.07951902 72.12705734 224.05943906 68.36723277 224.02893066 64.60720253 C224.01603808 62.58005205 224.01771423 60.55282503 224.01992798 58.52563477 C223.91795783 46.76974499 223.91795783 46.76974499 218.33320618 36.82992554 C212.37703824 33.44573921 206.5745821 32.97453062 199.90550232 33.00672913 C198.63198766 33.00099081 198.63198766 33.00099081 197.33274543 32.99513656 C194.5009667 32.98485586 191.6693926 32.98878932 188.83760071 32.99276733 C186.80193393 32.98841813 184.76626879 32.98323428 182.73060608 32.97727966 C177.20991273 32.96390072 171.68928789 32.96330979 166.16858149 32.96584296 C161.55630375 32.96691345 156.94403983 32.96202729 152.33176506 32.95723754 C141.44860859 32.9461461 130.56548665 32.94570287 119.68232727 32.95175171 C108.46300799 32.9577916 97.24381411 32.9454792 86.02451622 32.92418164 C76.38439101 32.90655614 66.74430569 32.9005658 57.10416496 32.90381938 C51.34993255 32.90563091 45.5957896 32.90300899 39.84157181 32.88910484 C34.4291891 32.87651582 29.01700165 32.8784809 23.60462189 32.89151573 C21.62172504 32.89387873 19.63881441 32.89115677 17.65593338 32.88289261 C14.94202301 32.87239998 12.22876476 32.88054593 9.51487732 32.89320374 C8.73655048 32.88582945 7.95822365 32.87845517 7.15631115 32.87085742 C0.62175709 32.93465423 -5.93380759 33.97543825 -10.85429382 38.51742554 C-14.23848015 44.47359347 -14.70968874 50.27604961 -14.67749023 56.94512939 C-14.68131578 57.79413917 -14.68514133 58.64314894 -14.6890828 59.51788628 C-14.69936351 62.34966501 -14.69543004 65.18123912 -14.69145203 68.01303101 C-14.69580124 70.04869778 -14.70098508 72.08436292 -14.7069397 74.12002563 C-14.72031865 79.64071899 -14.72090957 85.16134383 -14.7183764 90.68205023 C-14.71730591 95.29432796 -14.72219207 99.90659188 -14.72698182 104.51886666 C-14.73807326 115.40202312 -14.73851649 126.28514507 -14.73246765 137.16830444 C-14.72642776 148.38762373 -14.73874016 159.6068176 -14.76003772 170.82611549 C-14.77766322 180.4662407 -14.78365356 190.10632603 -14.78039998 199.74646676 C-14.77858845 205.50069916 -14.78121037 211.25484212 -14.79511452 217.00905991 C-14.80770355 222.42144261 -14.80573846 227.83363007 -14.79270363 233.24600983 C-14.79034063 235.22890667 -14.79306259 237.2118173 -14.80132675 239.19469833 C-14.81181938 241.90860871 -14.80367343 244.62186696 -14.79101562 247.33575439 C-14.80207705 248.50324465 -14.80207705 248.50324465 -14.81336194 249.69432056 C-14.74956513 256.22887462 -13.70878112 262.7844393 -9.16679382 267.70492554 C-1.60532755 272.00121319 6.11678274 271.57352886 14.59663391 271.58627319 C16.01637334 271.59558146 17.43610734 271.60575146 18.85583496 271.61671448 C22.69412953 271.64392737 26.53238758 271.65913793 30.37075305 271.67214251 C34.38798871 271.68781132 38.40515021 271.71458952 42.42233276 271.74017334 C50.02233824 271.78689488 57.62235778 271.82367098 65.22243315 271.85684621 C73.87785761 271.8951145 82.53320746 271.94451229 91.18856895 271.99483037 C108.98673304 272.09805169 126.78492869 272.18587482 144.58320618 272.26742554 C144.58320618 282.82742554 144.58320618 293.38742554 144.58320618 304.26742554 C124.74588227 304.38054499 104.90882183 304.47254435 85.07125664 304.5264864 C75.8591388 304.55220476 66.64723644 304.58723261 57.43525696 304.6446228 C49.40067647 304.69465375 41.36625215 304.72676277 33.3315202 304.73786801 C29.08201635 304.74435366 24.83295901 304.75946166 20.58359909 304.79607582 C16.57308065 304.83034774 12.563187 304.84041666 8.55253601 304.83296394 C7.09095473 304.83432473 5.62934966 304.84407017 4.16789627 304.86345291 C-9.78579419 305.0392316 -22.0930096 302.17267797 -32.41679382 292.26742554 C-40.82665528 284.05634263 -47.29662354 273.93919033 -47.67685604 261.88443661 C-47.69164432 260.21104648 -47.6956633 258.5375388 -47.69094849 256.86408997 C-47.69618517 255.93693698 -47.70142184 255.00978398 -47.70681721 254.05453545 C-47.72177902 250.95805566 -47.72252153 247.86174168 -47.72319031 244.76522827 C-47.7308145 242.54063133 -47.73924245 240.31603702 -47.74841309 238.09144592 C-47.77034288 232.05391778 -47.77915531 226.0164403 -47.78423953 219.97887683 C-47.78788577 216.20288733 -47.79412732 212.42691104 -47.80124092 208.65092659 C-47.82069326 198.17907151 -47.83720805 187.70722433 -47.84011745 177.23535061 C-47.84030502 176.56600296 -47.84049259 175.89665531 -47.84068585 175.2070244 C-47.84105208 173.85031164 -47.84141578 172.49359888 -47.84177696 171.13688611 C-47.84195977 170.46348707 -47.84214258 169.79008803 -47.84233093 169.09628296 C-47.84251148 168.42205365 -47.84269203 167.74782434 -47.84287805 167.05316383 C-47.84641575 156.1410148 -47.87341538 145.22906359 -47.91082882 134.3169831 C-47.94900723 123.09114462 -47.96783556 111.86540076 -47.96857697 100.6394859 C-47.96936824 94.34567237 -47.97803811 88.05211405 -48.00657463 81.75835991 C-48.03284029 75.83289833 -48.03491276 69.90790198 -48.01891899 63.98240852 C-48.01711111 61.81615811 -48.02373497 59.64988042 -48.0397377 57.48368835 C-48.16253541 39.77127509 -46.18376022 26.29504475 -33.31913757 13.11898804 C-23.69960483 3.99145962 -13.10282787 -0.04726762 0 0 Z " fill="#000000" transform="translate(47.41679382324219,-0.267425537109375)"/>
<path d="M0 0 C12.57035322 -0.09061472 25.14048707 -0.16389675 37.7110939 -0.20724869 C43.54905652 -0.22806258 49.38678276 -0.25626666 55.22460938 -0.30175781 C60.8656418 -0.34543695 66.50644783 -0.36918365 72.14763641 -0.37950897 C74.29247345 -0.38686085 76.43729905 -0.40121672 78.58203888 -0.42292023 C96.82255083 -0.60004812 109.91939516 1.48060405 123.75 14.3125 C133.34608132 24.45175573 136.42629655 36.05697453 136.51171875 49.6953125 C136.52966995 50.76876923 136.54762115 51.84222595 136.56611633 52.94821167 C136.61983039 56.34043577 136.65398988 59.73252235 136.6875 63.125 C136.72070741 65.44012315 136.75520018 67.75522823 136.79101562 70.0703125 C136.87553438 75.71344179 136.94253024 81.35653306 137 87 C142.445 81.555 142.445 81.555 148 76 C153.62303757 80.67466337 158.79741554 85.67765667 163.9375 90.875 C164.71673828 91.65875 165.49597656 92.4425 166.29882812 93.25 C168.20154085 95.16438581 170.10186171 97.08108034 172 99 C166.87458022 105.20347387 161.2723094 110.85684676 155.5703125 116.52734375 C154.56975714 117.52603017 153.56942519 118.52494047 152.56930542 119.52406311 C149.9576612 122.13191964 147.34302633 124.73675695 144.72772217 127.34094238 C142.05101677 130.00735236 139.37719898 132.67665464 136.703125 135.34570312 C131.47154602 140.56661101 126.23679904 145.78432751 121 151 C117.25815246 149.4402101 114.89097222 147.13267827 112.04785156 144.27490234 C111.5693425 143.79668533 111.09083344 143.31846832 110.5978241 142.82575989 C109.02396805 141.25051517 107.45730707 139.66831465 105.890625 138.0859375 C104.79818714 136.98976787 103.70530566 135.89404019 102.61199951 134.79873657 C99.74048758 131.91960112 96.87503346 129.03450944 94.01080322 126.14813232 C91.08505874 123.20190185 88.15361986 120.26134931 85.22265625 117.3203125 C79.47618518 111.55241412 73.73610194 105.77821036 68 100 C71.31599075 96.06911864 74.65139165 92.22284982 78.3046875 88.59765625 C79.05234375 87.85322266 79.8 87.10878906 80.5703125 86.34179688 C81.71113281 85.21354492 81.71113281 85.21354492 82.875 84.0625 C83.65875 83.28326172 84.4425 82.50402344 85.25 81.70117188 C87.16438581 79.79845915 89.08108034 77.89813829 91 76 C92.06486855 76.89301656 93.12675041 77.7895947 94.1875 78.6875 C94.77917969 79.18636719 95.37085938 79.68523437 95.98046875 80.19921875 C98.41846096 82.37313444 100.70663567 84.67494842 103 87 C103.07464507 81.61062585 103.12883434 76.22155848 103.16479492 70.83178711 C103.17979997 69.00165559 103.20021059 67.17155954 103.22631836 65.34155273 C103.26306906 62.69766442 103.27980937 60.05425508 103.29296875 57.41015625 C103.31619453 56.20021751 103.31619453 56.20021751 103.33988953 54.96583557 C103.34183467 48.26894825 102.41946211 41.62108396 97.75 36.5625 C91.74676379 33.15157034 85.8509996 32.69936057 79.12719727 32.68115234 C78.26786087 32.67110672 77.40852448 32.6610611 76.52314758 32.65071106 C73.70424014 32.62000781 70.8854271 32.60287986 68.06640625 32.5859375 C66.10342097 32.5672155 64.14044365 32.54764132 62.17747498 32.5272522 C57.02699487 32.47603407 51.8764887 32.43635319 46.72589111 32.39910889 C41.46368009 32.35900444 36.20157651 32.30794152 30.93945312 32.2578125 C20.62637024 32.16117537 10.31324262 32.07774516 0 32 C0 21.44 0 10.88 0 0 Z " fill="#000000" transform="translate(336,32)"/>
<path d="M0 0 C3.74184754 1.5597899 6.10902778 3.86732173 8.95214844 6.72509766 C9.4306575 7.20331467 9.90916656 7.68153168 10.4021759 8.17424011 C11.97603195 9.74948483 13.54269293 11.33168535 15.109375 12.9140625 C16.20181286 14.01023213 17.29469434 15.10595981 18.38800049 16.20126343 C21.25951242 19.08039888 24.12496654 21.96549056 26.98919678 24.85186768 C29.91494126 27.79809815 32.84638014 30.73865069 35.77734375 33.6796875 C41.52381482 39.44758588 47.26389806 45.22178964 53 51 C49.68400925 54.93088136 46.34860835 58.77715018 42.6953125 62.40234375 C41.94765625 63.14677734 41.2 63.89121094 40.4296875 64.65820312 C39.28886719 65.78645508 39.28886719 65.78645508 38.125 66.9375 C37.34125 67.71673828 36.5575 68.49597656 35.75 69.29882812 C33.83561419 71.20154085 31.91891966 73.10186171 30 75 C28.93513145 74.10698344 27.87324959 73.2104053 26.8125 72.3125 C26.22082031 71.81363281 25.62914063 71.31476563 25.01953125 70.80078125 C22.58153904 68.62686556 20.29336433 66.32505158 18 64 C17.92535493 69.38937415 17.87116566 74.77844152 17.83520508 80.16821289 C17.82020003 81.99834441 17.79978941 83.82844046 17.77368164 85.65844727 C17.73693094 88.30233558 17.72019063 90.94574492 17.70703125 93.58984375 C17.69154739 94.39646957 17.67606354 95.2030954 17.66011047 96.03416443 C17.65816533 102.73105175 18.58053789 109.37891604 23.25 114.4375 C29.25323621 117.84842966 35.1490004 118.30063943 41.87280273 118.31884766 C42.73213913 118.32889328 43.59147552 118.3389389 44.47685242 118.34928894 C47.29575986 118.37999219 50.1145729 118.39712014 52.93359375 118.4140625 C54.89657903 118.4327845 56.85955635 118.45235868 58.82252502 118.4727478 C63.97300513 118.52396593 69.1235113 118.56364681 74.27410889 118.60089111 C79.53631991 118.64099556 84.79842349 118.69205848 90.06054688 118.7421875 C100.37362976 118.83882463 110.68675738 118.92225484 121 119 C121 129.56 121 140.12 121 151 C108.46419449 151.11336571 95.92873444 151.2049259 83.39253044 151.25906086 C77.57024833 151.28505468 71.74833784 151.320265 65.92626953 151.37719727 C60.29818236 151.43188261 54.67045062 151.46149718 49.04211807 151.47438622 C46.90449562 151.48356088 44.76689064 151.50147537 42.62942123 151.52865028 C26.42407284 151.72631635 12.34167763 150.84133934 0 139 C-9.93001238 129.30469701 -15.09808416 118.60105306 -15.37905884 104.73609924 C-15.39061005 103.70041306 -15.40216125 102.66472687 -15.4140625 101.59765625 C-15.43342865 100.51995468 -15.4527948 99.44225311 -15.4727478 98.33189392 C-15.53225755 94.9088417 -15.57881456 91.48575534 -15.625 88.0625 C-15.66320608 85.73370975 -15.70225933 83.40493324 -15.7421875 81.07617188 C-15.83793564 75.38422687 -15.92207218 69.69221574 -16 64 C-19.63 67.63 -23.26 71.26 -27 75 C-32.62303757 70.32533663 -37.79741554 65.32234333 -42.9375 60.125 C-43.71673828 59.34125 -44.49597656 58.5575 -45.29882812 57.75 C-47.20154085 55.83561419 -49.10186171 53.91891966 -51 52 C-45.87458022 45.79652613 -40.2723094 40.14315324 -34.5703125 34.47265625 C-33.56975714 33.47396983 -32.56942519 32.47505953 -31.56930542 31.47593689 C-28.9576612 28.86808036 -26.34302633 26.26324305 -23.72772217 23.65905762 C-21.05101677 20.99264764 -18.37719898 18.32334536 -15.703125 15.65429688 C-10.47154602 10.43338899 -5.23679904 5.21567249 0 0 Z " fill="#000000" transform="translate(55,329)"/>
<path d="M0 0 C58.08 0 116.16 0 176 0 C176 10.56 176 21.12 176 32 C117.92 32 59.84 32 0 32 C0 21.44 0 10.88 0 0 Z " fill="#000000" transform="translate(64,136)"/>
<path d="M0 0 C58.08 0 116.16 0 176 0 C176 10.56 176 21.12 176 32 C117.92 32 59.84 32 0 32 C0 21.44 0 10.88 0 0 Z " fill="#000000" transform="translate(64,72)"/>
<path d="M0 0 C10.56 0 21.12 0 32 0 C32 47.52 32 95.04 32 144 C21.44 144 10.88 144 0 144 C0 96.48 0 48.96 0 0 Z " fill="#000000" transform="translate(344,288)"/>
<path d="M0 0 C42.24 0 84.48 0 128 0 C128 10.56 128 21.12 128 32 C85.76 32 43.52 32 0 32 C0 21.44 0 10.88 0 0 Z " fill="#000000" transform="translate(64,200)"/>
<path d="M0 0 C10.56 0 21.12 0 32 0 C32 31.68 32 63.36 32 96 C21.44 96 10.88 96 0 96 C0 64.32 0 32.64 0 0 Z " fill="#000000" transform="translate(408,312)"/>
<path d="M0 0 C10.56 0 21.12 0 32 0 C32 26.4 32 52.8 32 80 C21.44 80 10.88 80 0 80 C0 53.6 0 27.2 0 0 Z " fill="#000000" transform="translate(280,320)"/>
</svg>
